<svg width="512" height="512" viewBox="0 0 512 512" fill="none" xmlns="http://www.w3.org/2000/svg">
<defs>
<linearGradient id="bg" x1="0" y1="0" x2="512" y2="512" gradientUnits="userSpaceOnUse">
<stop offset="0" stop-color="#2A5C3F"/>
<stop offset="1" stop-color="#1A3A2A"/>
</linearGradient>
<linearGradient id="cherry1" x1="30" y1="191" x2="122" y2="264" gradientUnits="userSpaceOnUse">
<stop offset="0" stop-color="#FF4D5E"/>
<stop offset="1" stop-color="#CC2D3A"/>
</linearGradient>
<linearGradient id="cherry2" x1="142" y1="185" x2="237" y2="262" gradientUnits="userSpaceOnUse">
<stop offset="0" stop-color="#FF4D5E"/>
<stop offset="1" stop-color="#CC2D3A"/>
</linearGradient>
<linearGradient id="stem" x1="80" y1="0" x2="180" y2="200" gradientUnits="userSpaceOnUse">
<stop offset="0" stop-color="#5CBF6B"/>
<stop offset="1" stop-color="#3D9E4A"/>
</linearGradient>
</defs>
<rect width="512" height="512" rx="112" fill="url(#bg)"/>
<g transform="translate(122 100) scale(1.0)">
<path d="M80.3322 191.708C81.1113 203.894 72.5627 208.934 72.8678 193.823C72.8678 193.823 61.5497 40.0785 177.559 2.35135C177.559 2.35135 184.574 0.573643 178.239 10.2449C178.239 10.2428 70.8591 43.5051 80.3322 191.708Z" fill="url(#stem)"/>
<path d="M179.956 190.888C186.821 200.982 182.091 209.662 174.623 196.519C174.623 196.519 94.0882 94.2441 174.474 2.4838C174.474 2.4838 178.738 -1.30628 178.241 10.2428C178.239 10.2428 103.036 77.7358 179.956 190.888Z" fill="url(#stem)"/>
<path d="M76.1469 264.151C99.2102 266.52 108.67 257.782 114.404 248.838C118.058 243.138 122.534 234.253 122.534 224.16C122.534 206.073 109.931 191.412 94.3834 191.412C87.4248 191.412 83.0622 193.768 76.1453 193.768C69.229 193.768 64.8674 191.412 57.9072 191.412C42.36 191.412 29.757 206.073 29.757 224.16C29.757 234.251 34.2323 243.137 37.8868 248.838C43.6219 257.784 53.082 266.52 76.1469 264.151Z" fill="url(#cherry1)"/>
<path d="M208.549 259.206C230.441 251.567 235.3 239.639 236.699 229.112C237.592 222.4 237.874 212.456 233.593 203.316C225.921 186.934 208.289 179.008 194.21 185.602C187.908 188.554 184.958 192.538 178.694 195.469C172.432 198.405 167.479 198.123 161.179 201.076C147.101 207.67 141.905 226.291 149.577 242.672C153.858 251.812 161.681 257.957 167.41 261.57C176.394 267.237 188.667 271.137 208.549 259.206Z" fill="url(#cherry2)"/>
<ellipse cx="82" cy="218" rx="18" ry="12" fill="rgba(255,255,255,0.15)" transform="rotate(-20 82 218)"/>
<ellipse cx="192" cy="215" rx="16" ry="10" fill="rgba(255,255,255,0.15)" transform="rotate(-30 192 215)"/>
<path d="M185.441 2.94585C182.671 -1.16122 175.194 -0.962211 168.741 3.39036C162.287 7.74293 159.302 14.6008 162.072 18.7079C164.842 22.815 172.319 22.616 178.772 18.2634C185.225 13.9108 188.211 7.05292 185.441 2.94585Z" fill="#2DB840"/>
</g>
</svg>
